<?xml version="1.0" encoding="utf-8"?>
<!-- Generator: Adobe Illustrator 25.0.1, SVG Export Plug-In . SVG Version: 6.00 Build 0)  -->
<svg version="1.1" id="f039507b-7936-4e2f-94dd-b17eb72a5501"
	 xmlns="http://www.w3.org/2000/svg" xmlns:xlink="http://www.w3.org/1999/xlink" x="0px" y="0px" viewBox="0 0 32 32"
	 style="enable-background:new 0 0 32 32;" xml:space="preserve">
<style type="text/css">
	.st0{fill:#274060;}
	.st1{fill:#FFFFFF;}
</style>
<path class="st0" d="M2,0h28c1.1,0,2,0.9,2,2v28c0,1.1-0.9,2-2,2H2c-1.1,0-2-0.9-2-2V2C0,0.9,0.9,0,2,0z"/>
<g>
	<polygon class="st1" points="10.4,26.1 5.9,26.1 5.9,6.6 10.4,6.6 10.4,4.3 3.4,4.3 3.4,28.4 10.4,28.4 	"/>
	<polygon class="st1" points="22.2,4.3 22.2,6.6 26.7,6.6 26.7,26.1 22.2,26.1 22.2,28.4 29.2,28.4 29.2,4.3 	"/>
</g>
</svg>
