<?xml version="1.0" encoding="utf-8"?>
<!-- Generator: Adobe Illustrator 25.4.0, SVG Export Plug-In . SVG Version: 6.00 Build 0)  -->
<svg version="1.1" id="f039507b-7936-4e2f-94dd-b17eb72a5501"
	 xmlns="http://www.w3.org/2000/svg" xmlns:xlink="http://www.w3.org/1999/xlink" x="0px" y="0px" viewBox="0 0 32 32"
	 style="enable-background:new 0 0 32 32;" xml:space="preserve">
<style type="text/css">
	.st0{fill:#FFFFFF;}
	.st1{fill:#FD290E;}
	.st2{fill:#424242;}
</style>
<g>
	<path class="st0" d="M53.3,13.3c1.1,1.1,1.1,2.9,0,4c-1.1,1.1-2.9,1.1-4,0s-1.1-2.9,0-4C50.4,12.1,52.2,12.1,53.3,13.3"/>
	<path class="st0" d="M59.9,7.4h-2l-1.4-2.8H46.2l-1.4,2.8h-2c-1.6,0-2.8,1.3-2.8,2.8v11.4c0,1.6,1.3,2.8,2.8,2.8h17.1
		c1.6,0,2.8-1.3,2.8-2.8V10.3C62.7,8.7,61.4,7.4,59.9,7.4z M51.3,21c-3.1,0-5.7-2.6-5.7-5.7s2.6-5.7,5.7-5.7c3.1,0,5.7,2.6,5.7,5.7
		S54.5,21,51.3,21L51.3,21z"/>
</g>
<g>
	<path class="st1" d="M7,4.4h18c0.7,0,1.3,0.6,1.3,1.3v18c0,0.7-0.6,1.3-1.3,1.3H7c-0.7,0-1.3-0.6-1.3-1.3v-18
		C5.7,4.9,6.3,4.4,7,4.4z"/>
	<g>
		<path class="st0" d="M21.6,7.8H10.4c-0.9,0-1.7,0.8-1.7,1.7v10.3c0,0.9,0.7,1.7,1.7,1.7h11.3c0.9,0,1.7-0.7,1.7-1.7V9.5
			C23.3,8.6,22.5,7.8,21.6,7.8z M18.1,10.3c0.9,0,1.6,0.7,1.6,1.6s-0.7,1.6-1.6,1.6s-1.6-0.7-1.6-1.6S17.2,10.3,18.1,10.3z
			 M21.1,19.9H16h-4.9c-0.5,0-0.6-0.3-0.5-0.7l2.7-5.4c0.2-0.4,0.6-0.5,0.8-0.1l2.8,3.6c0.3,0.3,0.7,0.4,1,0.1l0.6-0.7
			c0.3-0.3,0.8-0.3,1,0.1l1.7,2.5C21.7,19.7,21.5,19.9,21.1,19.9z"/>
	</g>
</g>
<path class="st2" d="M29.9,2.6l0.9-0.9c0.2-0.2,0.2-0.5,0-0.7s-0.5-0.2-0.7,0l-0.9,0.9l-0.9-0.9c-0.2-0.2-0.5-0.2-0.7,0
	s-0.2,0.5,0,0.7l0.9,0.9l-0.9,0.9c-0.2,0.2-0.2,0.5,0,0.7c0.1,0.1,0.2,0.1,0.4,0.1s0.3,0,0.4-0.1l0.9-0.9l0.9,0.9
	c0.1,0.1,0.2,0.1,0.4,0.1s0.3,0,0.4-0.1C31,4,31,3.7,30.8,3.5L29.9,2.6z"/>
<path class="st2" d="M30.8,13.8l-2.5-2.5c-0.2-0.2-0.5-0.2-0.7,0s-0.2,0.5,0,0.7l2.1,2.1l-2.1,2.1c-0.2,0.2-0.2,0.5,0,0.7
	c0.1,0.1,0.2,0.1,0.4,0.1s0.3,0,0.4-0.1l2.5-2.5c0.1-0.1,0.1-0.2,0.1-0.4C30.9,14,30.9,13.9,30.8,13.8z"/>
<path class="st2" d="M2.3,14.2l2.1-2.1c0.2-0.2,0.2-0.5,0-0.7c-0.1-0.1-0.2-0.1-0.4-0.1s-0.3,0-0.4,0.1l-2.5,2.5
	c-0.1,0.1-0.1,0.2-0.1,0.4c0,0.1,0,0.3,0.1,0.4L3.7,17c0.2,0.2,0.5,0.2,0.7,0s0.2-0.5,0-0.7L2.3,14.2z"/>
<rect x="5.7" y="26.1" class="st2" width="20.3" height="1"/>
<rect x="5.7" y="28" class="st2" width="16.3" height="1"/>
</svg>
