<?xml version="1.0" encoding="utf-8"?>
<!-- Generator: Adobe Illustrator 25.4.1, SVG Export Plug-In . SVG Version: 6.00 Build 0)  -->
<svg version="1.1" id="f039507b-7936-4e2f-94dd-b17eb72a5501"
	 xmlns="http://www.w3.org/2000/svg" xmlns:xlink="http://www.w3.org/1999/xlink" x="0px" y="0px" viewBox="0 0 32 32"
	 style="enable-background:new 0 0 32 32;" xml:space="preserve">
<style type="text/css">
	.st0{fill:#274060;}
	.st1{fill:#FFFFFF;}
</style>
<path class="st0" d="M2,0h28c1.1,0,2,0.9,2,2v28c0,1.1-0.9,2-2,2H2c-1.1,0-2-0.9-2-2V2C0,0.9,0.9,0,2,0z"/>
<g>
	<g>
		<path class="st1" d="M13,11H4.7C4,11,3.5,10.5,3.5,9.9V5c0-0.6,0.5-1.2,1.2-1.2H13c0.6,0,1.2,0.5,1.2,1.2v4.9
			C14.2,10.5,13.7,11,13,11z"/>
		<path class="st1" d="M11.1,15H4.7c-0.6,0-1.2-0.5-1.2-1.2v0c0-0.6,0.5-1.2,1.2-1.2h6.4c0.6,0,1.2,0.5,1.2,1.2v0
			C12.2,14.4,11.7,15,11.1,15z"/>
		<g>
			<path class="st0" d="M10.9,4.9H6.8c-0.3,0-0.6,0.3-0.6,0.6v3.8c0,0.3,0.3,0.6,0.6,0.6h4.2c0.3,0,0.6-0.3,0.6-0.6V5.6
				C11.5,5.2,11.2,4.9,10.9,4.9z M9.6,5.8c0.3,0,0.6,0.3,0.6,0.6C10.2,6.8,9.9,7,9.6,7S9,6.8,9,6.4C9,6.1,9.3,5.8,9.6,5.8z
				 M10.7,9.4H8.8H7c-0.2,0-0.2-0.1-0.2-0.3l1-2C7.9,7,8.1,7,8.2,7.1l1,1.3c0.1,0.1,0.3,0.1,0.4,0l0.2-0.3c0.1-0.1,0.3-0.1,0.4,0
				l0.6,0.9C10.9,9.3,10.9,9.4,10.7,9.4z"/>
		</g>
	</g>
	<g>
		<path class="st1" d="M27.3,11H19c-0.6,0-1.2-0.5-1.2-1.2V5c0-0.6,0.5-1.2,1.2-1.2h8.4c0.6,0,1.2,0.5,1.2,1.2v4.9
			C28.5,10.5,28,11,27.3,11z"/>
		<path class="st1" d="M25.4,15H19c-0.6,0-1.2-0.5-1.2-1.2v0c0-0.6,0.5-1.2,1.2-1.2h6.4c0.6,0,1.2,0.5,1.2,1.2v0
			C26.6,14.4,26,15,25.4,15z"/>
		<g>
			<path class="st0" d="M25.2,4.9h-4.1c-0.3,0-0.6,0.3-0.6,0.6v3.8c0,0.3,0.3,0.6,0.6,0.6h4.2c0.3,0,0.6-0.3,0.6-0.6V5.6
				C25.8,5.2,25.6,4.9,25.2,4.9z M23.9,5.8c0.3,0,0.6,0.3,0.6,0.6c0,0.3-0.3,0.6-0.6,0.6s-0.6-0.3-0.6-0.6
				C23.3,6.1,23.6,5.8,23.9,5.8z M25,9.4h-1.9h-1.8c-0.2,0-0.2-0.1-0.2-0.3l1-2c0.1-0.1,0.2-0.2,0.3,0l1,1.3c0.1,0.1,0.3,0.1,0.4,0
				l0.2-0.3c0.1-0.1,0.3-0.1,0.4,0l0.6,0.9C25.3,9.3,25.2,9.4,25,9.4z"/>
		</g>
	</g>
	<g>
		<path class="st1" d="M13,24.6H4.7c-0.6,0-1.2-0.5-1.2-1.2v-4.9c0-0.6,0.5-1.2,1.2-1.2H13c0.6,0,1.2,0.5,1.2,1.2v4.9
			C14.2,24,13.7,24.6,13,24.6z"/>
		<path class="st1" d="M11.1,28.5H4.7c-0.6,0-1.2-0.5-1.2-1.2v0c0-0.6,0.5-1.2,1.2-1.2h6.4c0.6,0,1.2,0.5,1.2,1.2v0
			C12.2,28,11.7,28.5,11.1,28.5z"/>
		<g>
			<path class="st0" d="M10.9,18.5H6.8c-0.3,0-0.6,0.3-0.6,0.6v3.8c0,0.3,0.3,0.6,0.6,0.6h4.2c0.3,0,0.6-0.3,0.6-0.6v-3.8
				C11.5,18.7,11.2,18.5,10.9,18.5z M9.6,19.4c0.3,0,0.6,0.3,0.6,0.6c0,0.3-0.3,0.6-0.6,0.6S9,20.3,9,20C9,19.6,9.3,19.4,9.6,19.4z
				 M10.7,22.9H8.8H7c-0.2,0-0.2-0.1-0.2-0.3l1-2c0.1-0.1,0.2-0.2,0.3,0l1,1.3c0.1,0.1,0.3,0.1,0.4,0l0.2-0.3c0.1-0.1,0.3-0.1,0.4,0
				l0.6,0.9C10.9,22.8,10.9,22.9,10.7,22.9z"/>
		</g>
	</g>
	<g>
		<path class="st1" d="M27.3,24.6H19c-0.6,0-1.2-0.5-1.2-1.2v-4.9c0-0.6,0.5-1.2,1.2-1.2h8.4c0.6,0,1.2,0.5,1.2,1.2v4.9
			C28.5,24,28,24.6,27.3,24.6z"/>
		<path class="st1" d="M25.4,28.5H19c-0.6,0-1.2-0.5-1.2-1.2v0c0-0.6,0.5-1.2,1.2-1.2h6.4c0.6,0,1.2,0.5,1.2,1.2v0
			C26.6,28,26,28.5,25.4,28.5z"/>
		<g>
			<path class="st0" d="M25.2,18.5h-4.1c-0.3,0-0.6,0.3-0.6,0.6v3.8c0,0.3,0.3,0.6,0.6,0.6h4.2c0.3,0,0.6-0.3,0.6-0.6v-3.8
				C25.8,18.7,25.6,18.5,25.2,18.5z M23.9,19.4c0.3,0,0.6,0.3,0.6,0.6c0,0.3-0.3,0.6-0.6,0.6s-0.6-0.3-0.6-0.6
				C23.3,19.6,23.6,19.4,23.9,19.4z M25,22.9h-1.9h-1.8c-0.2,0-0.2-0.1-0.2-0.3l1-2c0.1-0.1,0.2-0.2,0.3,0l1,1.3
				c0.1,0.1,0.3,0.1,0.4,0l0.2-0.3c0.1-0.1,0.3-0.1,0.4,0l0.6,0.9C25.3,22.8,25.2,22.9,25,22.9z"/>
		</g>
	</g>
</g>
</svg>
