<?xml version="1.0" encoding="utf-8"?>
<!-- Generator: Adobe Illustrator 25.0.1, SVG Export Plug-In . SVG Version: 6.00 Build 0)  -->
<svg version="1.1" id="f039507b-7936-4e2f-94dd-b17eb72a5501"
	 xmlns="http://www.w3.org/2000/svg" xmlns:xlink="http://www.w3.org/1999/xlink" x="0px" y="0px" viewBox="0 0 32 32"
	 style="enable-background:new 0 0 32 32;" xml:space="preserve">
<style type="text/css">
	.st0{fill:#424242;}
	.st1{fill:#FFFFFF;}
</style>
<path class="st0" d="M2,0h28c1.1,0,2,0.9,2,2v28c0,1.1-0.9,2-2,2H2c-1.1,0-2-0.9-2-2V2C0,0.9,0.9,0,2,0z"/>
<g>
	<path class="st1" d="M53.3,13.3c1.1,1.1,1.1,2.9,0,4c-1.1,1.1-2.9,1.1-4,0c-1.1-1.1-1.1-2.9,0-4C50.4,12.1,52.2,12.1,53.3,13.3"/>
	<path class="st1" d="M59.9,7.4h-2l-1.4-2.8H46.2l-1.4,2.8l-2,0c-1.6,0-2.8,1.3-2.8,2.8l0,11.4c0,1.6,1.3,2.8,2.8,2.8h17.1
		c1.6,0,2.8-1.3,2.8-2.8V10.3C62.7,8.7,61.4,7.4,59.9,7.4z M51.3,21c-3.1,0-5.7-2.6-5.7-5.7s2.6-5.7,5.7-5.7c3.1,0,5.7,2.6,5.7,5.7
		S54.5,21,51.3,21L51.3,21z"/>
</g>
<g>
	<path class="st1" d="M24.7,5.4H7.3C5.9,5.4,4.7,6.6,4.7,8V24c0,1.4,1.1,2.6,2.6,2.6h17.5c1.4,0,2.6-1.1,2.6-2.6V8
		C27.3,6.6,26.1,5.4,24.7,5.4z M19.3,9.2c1.4,0,2.5,1.1,2.5,2.5s-1.1,2.5-2.5,2.5c-1.4,0-2.5-1.1-2.5-2.5S17.9,9.2,19.3,9.2z
		 M23.9,24.2H16H8.4c-0.7,0-1-0.5-0.7-1.1l4.2-8.4c0.3-0.6,0.9-0.7,1.3-0.1l4.3,5.6c0.4,0.5,1.1,0.6,1.6,0.1l1-1.1
		c0.5-0.5,1.2-0.4,1.6,0.1l2.7,3.9C24.9,23.8,24.6,24.2,23.9,24.2z"/>
</g>
</svg>
