<svg id="a9e7d71f-7755-4df1-af8f-aafa11d300ea" data-name="Calque 1" xmlns="http://www.w3.org/2000/svg" viewBox="0 0 32 32"><defs><style>.a422a7bc-75b0-432f-9bb1-d8d7dac3502b{fill:#65afff;}.ae434bd8-70f2-4d11-b47e-7c6159814cc4{fill:#fff;}</style></defs><rect class="a422a7bc-75b0-432f-9bb1-d8d7dac3502b" width="32" height="32" rx="2.01"/><path class="ae434bd8-70f2-4d11-b47e-7c6159814cc4" d="M27,23.26l-3.77-3.77L25,17.65A.65.65,0,0,0,25.2,17a.66.66,0,0,0-.43-.47L13.7,12.87a.66.66,0,0,0-.83.83l3.69,11.07a.66.66,0,0,0,.47.43.65.65,0,0,0,.62-.17l1.84-1.85L23.26,27a.62.62,0,0,0,.46.19.65.65,0,0,0,.46-.19L27,24.18A.66.66,0,0,0,27,23.26Zm-3.23,2.3L20,21.8a.64.64,0,0,0-.92,0l-1.56,1.56-2.95-8.84,8.84,2.95L21.8,19a.64.64,0,0,0,0,.92l3.76,3.77Z"/><path class="ae434bd8-70f2-4d11-b47e-7c6159814cc4" d="M13.35,10.08A.65.65,0,0,0,14,9.43V5.51a.65.65,0,0,0-.65-.65.66.66,0,0,0-.66.65V9.43A.66.66,0,0,0,13.35,10.08Z"/><path class="ae434bd8-70f2-4d11-b47e-7c6159814cc4" d="M8.27,7.35a.65.65,0,0,0-.92.92L10.12,11a.65.65,0,0,0,.92-.92Z"/><path class="ae434bd8-70f2-4d11-b47e-7c6159814cc4" d="M10.12,15.65,7.35,18.42a.65.65,0,0,0,.92.93L11,16.58a.67.67,0,0,0,0-.93A.66.66,0,0,0,10.12,15.65Z"/><path class="ae434bd8-70f2-4d11-b47e-7c6159814cc4" d="M16.58,11l2.77-2.77a.65.65,0,1,0-.93-.92l-2.77,2.77a.66.66,0,0,0,0,.92A.67.67,0,0,0,16.58,11Z"/><path class="ae434bd8-70f2-4d11-b47e-7c6159814cc4" d="M10.08,13.35a.66.66,0,0,0-.65-.66H5.51a.66.66,0,0,0-.65.66.65.65,0,0,0,.65.65H9.43A.65.65,0,0,0,10.08,13.35Z"/></svg>