<?xml version="1.0" encoding="utf-8"?>
<!-- Generator: Adobe Illustrator 25.2.0, SVG Export Plug-In . SVG Version: 6.00 Build 0)  -->
<svg version="1.1" id="f039507b-7936-4e2f-94dd-b17eb72a5501"
	 xmlns="http://www.w3.org/2000/svg" xmlns:xlink="http://www.w3.org/1999/xlink" x="0px" y="0px" viewBox="0 0 32 32"
	 style="enable-background:new 0 0 32 32;" xml:space="preserve">
<style type="text/css">
	.st0{fill:#424242;}
	.st1{fill:#FFFFFF;}
</style>
<path class="st0" d="M2,0h28c1.1,0,2,0.9,2,2v28c0,1.1-0.9,2-2,2H2c-1.1,0-2-0.9-2-2V2C0,0.9,0.9,0,2,0z"/>
<g>
	<path class="st1" d="M53.3,13.3c1.1,1.1,1.1,2.9,0,4c-1.1,1.1-2.9,1.1-4,0s-1.1-2.9,0-4C50.4,12.1,52.2,12.1,53.3,13.3"/>
	<path class="st1" d="M59.9,7.4h-2l-1.4-2.8H46.2l-1.4,2.8h-2c-1.6,0-2.8,1.3-2.8,2.8v11.4c0,1.6,1.3,2.8,2.8,2.8h17.1
		c1.6,0,2.8-1.3,2.8-2.8V10.3C62.7,8.7,61.4,7.4,59.9,7.4z M51.3,21c-3.1,0-5.7-2.6-5.7-5.7s2.6-5.7,5.7-5.7c3.1,0,5.7,2.6,5.7,5.7
		S54.5,21,51.3,21L51.3,21z"/>
</g>
<g>
	<path class="st1" d="M22.8,7.7H8c-1.2,0-2.2,1-2.2,2.2v13.5c0,1.2,0.9,2.2,2.2,2.2h14.9c1.2,0,2.2-0.9,2.2-2.2V9.9
		C25,8.7,24,7.7,22.8,7.7z M18.2,10.9c1.2,0,2.1,0.9,2.1,2.1s-0.9,2.1-2.1,2.1c-1.2,0-2.1-0.9-2.1-2.1S17,10.9,18.2,10.9z
		 M22.1,23.6h-6.7H8.9c-0.6,0-0.9-0.4-0.6-0.9l3.6-7.1c0.3-0.5,0.8-0.6,1.1-0.1l3.7,4.7c0.3,0.4,0.9,0.5,1.4,0.1l0.9-0.9
		c0.4-0.4,1-0.3,1.4,0.1l2.3,3.3C23,23.2,22.7,23.6,22.1,23.6z"/>
</g>
<path class="st1" d="M1.8,16.2l2.8-1.4v0.4l-2.3,1.2v0l2.3,1.2v0.4l-2.8-1.4V16.2z"/>
<path class="st1" d="M26.1,18.2l1.7-4.3h0.4l-1.7,4.3H26.1z"/>
<path class="st1" d="M31.3,16.5l-2.8,1.4v-0.4l2.4-1.2v0l-2.4-1.2v-0.4l2.8,1.4V16.5z"/>
</svg>
