<?xml version="1.0" encoding="utf-8"?>
<!-- Generator: Adobe Illustrator 25.2.3, SVG Export Plug-In . SVG Version: 6.00 Build 0)  -->
<svg version="1.1" id="f039507b-7936-4e2f-94dd-b17eb72a5501"
	 xmlns="http://www.w3.org/2000/svg" xmlns:xlink="http://www.w3.org/1999/xlink" x="0px" y="0px" viewBox="0 0 32 32"
	 style="enable-background:new 0 0 32 32;" xml:space="preserve">
<style type="text/css">
	.st0{fill:#274060;}
	.st1{fill:#FFFFFF;}
</style>
<path class="st0" d="M2,0h28c1.1,0,2,0.9,2,2v28c0,1.1-0.9,2-2,2H2c-1.1,0-2-0.9-2-2V2C0,0.9,0.9,0,2,0z"/>
<g>
	<path class="st1" d="M10.8,16.9c-0.2,0-0.4-0.1-0.6-0.3l-1.3-2c-0.2-0.2-0.2-0.5,0-0.7l1.3-2c0.2-0.3,0.6-0.4,0.9-0.2
		c0.3,0.2,0.4,0.6,0.2,0.9l-1.1,1.6l1.1,1.6c0.2,0.3,0.1,0.7-0.2,0.9C11.1,16.9,11,16.9,10.8,16.9z"/>
	<path class="st1" d="M21.2,16.9c-0.1,0-0.3,0-0.4-0.1c-0.3-0.2-0.4-0.6-0.2-0.9l1.1-1.6l-1.1-1.6c-0.2-0.3-0.1-0.7,0.2-0.9
		c0.3-0.2,0.7-0.1,0.9,0.2l1.3,2c0.2,0.2,0.2,0.5,0,0.7l-1.3,2C21.6,16.8,21.4,16.9,21.2,16.9z"/>
	<path class="st1" d="M11.5,23.4c-0.6,0-1.1-0.5-1.1-1.1s0.5-1.1,1.1-1.1c0.6,0,1.1,0.5,1.1,1.1S12.1,23.4,11.5,23.4z M11.5,22.1
		c-0.1,0-0.2,0.1-0.2,0.2c0,0.2,0.4,0.2,0.4,0C11.7,22.2,11.6,22.1,11.5,22.1z"/>
	<path class="st1" d="M16,23.4c-0.6,0-1.1-0.5-1.1-1.1s0.5-1.1,1.1-1.1c0.6,0,1.1,0.5,1.1,1.1S16.6,23.4,16,23.4z M16,22.1
		c-0.1,0-0.2,0.1-0.2,0.2c0,0.2,0.4,0.2,0.4,0C16.2,22.2,16.1,22.1,16,22.1z"/>
	<path class="st1" d="M20.5,23.4c-0.6,0-1.1-0.5-1.1-1.1s0.5-1.1,1.1-1.1s1.1,0.5,1.1,1.1S21.1,23.4,20.5,23.4z M20.5,22.1
		c-0.1,0-0.2,0.1-0.2,0.2c0,0.2,0.4,0.2,0.4,0C20.7,22.2,20.6,22.1,20.5,22.1z"/>
	<path class="st1" d="M24.3,26.8H7.7c-1.4,0-2.5-1.1-2.5-2.5V7.7c0-1.4,1.1-2.5,2.5-2.5h16.6c1.4,0,2.5,1.1,2.5,2.5v16.6
		C26.8,25.7,25.7,26.8,24.3,26.8z M7.7,6.6c-0.6,0-1.1,0.5-1.1,1.1v16.6c0,0.6,0.5,1.1,1.1,1.1h16.6c0.6,0,1.1-0.5,1.1-1.1V7.7
		c0-0.6-0.5-1.1-1.1-1.1H7.7z"/>
</g>
</svg>
