<?xml version="1.0" encoding="utf-8"?>
<!-- Generator: Adobe Illustrator 25.2.0, SVG Export Plug-In . SVG Version: 6.00 Build 0)  -->
<svg version="1.1" id="f039507b-7936-4e2f-94dd-b17eb72a5501"
	 xmlns="http://www.w3.org/2000/svg" xmlns:xlink="http://www.w3.org/1999/xlink" x="0px" y="0px" viewBox="0 0 32 32"
	 style="enable-background:new 0 0 32 32;" xml:space="preserve">
<style type="text/css">
	.st0{fill:#FD290E;}
	.st1{fill:#FFFFFF;}
</style>
<path class="st0" d="M2,0h28c1.1,0,2,0.9,2,2v28c0,1.1-0.9,2-2,2H2c-1.1,0-2-0.9-2-2V2C0,0.9,0.9,0,2,0z"/>
<g>
	<path class="st1" d="M53.3,13.3c1.1,1.1,1.1,2.9,0,4c-1.1,1.1-2.9,1.1-4,0s-1.1-2.9,0-4C50.4,12.1,52.2,12.1,53.3,13.3"/>
	<path class="st1" d="M59.9,7.4h-2l-1.4-2.8H46.2l-1.4,2.8h-2c-1.6,0-2.8,1.3-2.8,2.8v11.4c0,1.6,1.3,2.8,2.8,2.8h17.1
		c1.6,0,2.8-1.3,2.8-2.8V10.3C62.7,8.7,61.4,7.4,59.9,7.4z M51.3,21c-3.1,0-5.7-2.6-5.7-5.7s2.6-5.7,5.7-5.7c3.1,0,5.7,2.6,5.7,5.7
		S54.5,21,51.3,21L51.3,21z"/>
</g>
<g>
	<path class="st1" d="M23.1,2H8.8C7.7,2,6.7,3,6.7,4.1v13.1c0,1.1,0.9,2.1,2.1,2.1h14.3c1.1,0,2.1-0.9,2.1-2.1V4.1
		C25.2,3,24.2,2,23.1,2z M18.7,5.1c1.1,0,2,0.9,2,2s-0.9,2-2,2s-2-0.9-2-2S17.5,5.1,18.7,5.1z M22.4,17.4H16H9.7
		c-0.6,0-0.8-0.4-0.6-0.9l3.4-6.9c0.2-0.5,0.7-0.6,1.1-0.1l3.5,4.6c0.3,0.4,0.9,0.5,1.3,0.1l0.8-0.9c0.4-0.4,1-0.3,1.3,0.1l2.2,3.2
		C23.3,17.1,23,17.4,22.4,17.4z"/>
</g>
<g>
	<path class="st1" d="M4.9,25.2l3.4-1.8V24l-2.9,1.4v0l2.9,1.4v0.5l-3.4-1.8V25.2z"/>
	<path class="st1" d="M9.3,22.2H10v2.2h0c0.1-0.2,0.3-0.3,0.5-0.5c0.2-0.1,0.4-0.2,0.7-0.2c0.5,0,1.2,0.3,1.2,1.5v2.1h-0.6v-2
		c0-0.6-0.2-1.1-0.8-1.1c-0.4,0-0.8,0.3-0.9,0.6c0,0.1,0,0.2,0,0.3v2.2H9.3V22.2z"/>
	<path class="st1" d="M14.2,22.8v1h0.9v0.5h-0.9v1.9c0,0.4,0.1,0.7,0.5,0.7c0.2,0,0.3,0,0.4,0l0,0.5c-0.1,0.1-0.3,0.1-0.6,0.1
		c-0.3,0-0.5-0.1-0.7-0.3c-0.2-0.2-0.3-0.5-0.3-0.9v-1.9H13v-0.5h0.6V23L14.2,22.8z"/>
	<path class="st1" d="M15.8,24.8c0-0.4,0-0.7,0-1h0.6l0,0.6h0c0.2-0.3,0.5-0.7,1.1-0.7c0.5,0,0.9,0.3,1,0.7h0
		c0.1-0.2,0.3-0.4,0.4-0.5c0.2-0.2,0.4-0.3,0.8-0.3c0.5,0,1.2,0.3,1.2,1.5v2.1h-0.6v-2c0-0.7-0.3-1.1-0.8-1.1
		c-0.4,0-0.7,0.3-0.8,0.6c0,0.1-0.1,0.2-0.1,0.3v2.2h-0.6v-2.1c0-0.6-0.3-1-0.7-1c-0.4,0-0.7,0.3-0.8,0.6c0,0.1-0.1,0.2-0.1,0.3v2.2
		h-0.6V24.8z"/>
	<path class="st1" d="M22,22.2h0.6v5.2H22V22.2z"/>
	<path class="st1" d="M27.1,25.7l-3.4,1.8v-0.5l2.9-1.4v0L23.7,24v-0.5l3.4,1.8V25.7z"/>
</g>
</svg>
