<?xml version="1.0" encoding="utf-8"?>
<!-- Generator: Adobe Illustrator 25.2.3, SVG Export Plug-In . SVG Version: 6.00 Build 0)  -->
<svg version="1.1" id="f039507b-7936-4e2f-94dd-b17eb72a5501"
	 xmlns="http://www.w3.org/2000/svg" xmlns:xlink="http://www.w3.org/1999/xlink" x="0px" y="0px" viewBox="0 0 32 32"
	 style="enable-background:new 0 0 32 32;" xml:space="preserve">
<style type="text/css">
	.st0{fill:#274060;}
	.st1{fill:#FFFFFF;}
</style>
<path class="st0" d="M2,0h28c1.1,0,2,0.9,2,2v28c0,1.1-0.9,2-2,2H2c-1.1,0-2-0.9-2-2V2C0,0.9,0.9,0,2,0z"/>
<g>
	<g>
		<path class="st1" d="M21.6,10H4.5C4.2,10,4,9.8,4,9.5V6.3C4,6,4.2,5.7,4.5,5.7h17.1c0.3,0,0.5,0.2,0.5,0.5v3.2
			C22.1,9.8,21.9,10,21.6,10z"/>
		<g>
			<path class="st1" d="M28,8.4h-1.6V10h-1.1V8.4h-1.6v-1h1.6V5.7h1.1v1.6H28V8.4z"/>
		</g>
	</g>
	<g>
		<path class="st1" d="M21.6,18.1H4.5c-0.3,0-0.5-0.2-0.5-0.5v-3.2c0-0.3,0.2-0.5,0.5-0.5h17.1c0.3,0,0.5,0.2,0.5,0.5v3.2
			C22.1,17.9,21.9,18.1,21.6,18.1z"/>
		<g>
			<path class="st1" d="M28,16.5h-1.6v1.6h-1.1v-1.6h-1.6v-1h1.6v-1.6h1.1v1.6H28V16.5z"/>
		</g>
	</g>
	<g>
		<path class="st1" d="M21.6,26.3H4.5C4.2,26.3,4,26,4,25.7v-3.2C4,22.2,4.2,22,4.5,22h17.1c0.3,0,0.5,0.2,0.5,0.5v3.2
			C22.1,26,21.9,26.3,21.6,26.3z"/>
		<g>
			<path class="st1" d="M28,24.6h-1.6v1.6h-1.1v-1.6h-1.6v-1h1.6V22h1.1v1.6H28V24.6z"/>
		</g>
	</g>
</g>
</svg>
